<svg id="Layer_7" data-name="Layer 7" xmlns="http://www.w3.org/2000/svg" viewBox="0 0 800 800"><defs><style>.cls-1{fill:none;}</style></defs><rect class="cls-1" x="1" y="-1" width="800" height="800"/><polygon points="400 750 400 687.5 156.69 687.5 94.19 750 400 750"/><polygon points="687.5 156.69 687.5 375 751 375 751 93.19 687.5 156.69"/><polygon points="112.5 643.31 112.5 112.5 643.31 112.5 705.81 50 51 50 51 704.81 112.5 643.31"/><path d="M467.61,729c1.61-.13,3.24-.24,4.87-.38,7.12-.64,14.26-1.1,21.35-2a36.66,36.66,0,0,0,15.86-5.4c6.15-4,9.39-9.91,10.59-17a46,46,0,0,0,.61-7.51c0-64.07-.06-128.15.1-192.23,0-14.84-9.67-32.69-27.3-38.48a94.63,94.63,0,0,0-18.51-3.8c-3.84-.45-7.7-.76-11.65-1.14V440.22c1.3-.09,2.63-.19,4-.27q18.38-1.08,36.74-2.14l36.63-2.09L570,434c4.51-.26,9-.55,13.52-.77a2.58,2.58,0,0,1,1.59.55c1.23.95,2.35,2.06,3.57,3a2.4,2.4,0,0,1,1,2.15q0,20.52,0,41v1.53a2.26,2.26,0,0,0,2.69-.8c13.89-15.42,29.82-28.22,48.54-37.35,12-5.87,24.51-10.52,37.78-12.72,12.18-2,24.33-2.18,36.11,2.07,15.61,5.64,26.27,16.13,29.84,32.7,3,13.74,1.21,26.85-6.67,38.84a29.3,29.3,0,0,1-20.28,13.43c-11.54,2-22.92,1.19-33.67-3.72a31.85,31.85,0,0,1-16.61-16.86c-1.59-3.74-1.63-7.68-1.46-11.67.27-6.23,2-12.2,3.18-18.28.12-.66.24-1.32.41-2.22-1.69.09-3.27.12-4.83.27-10.36,1-20,4.47-29.37,8.74a113.89,113.89,0,0,0-44.64,35.92,4.74,4.74,0,0,0-1,3.05q0,90.6,0,181.19c0,5.76,1.09,11.29,4.19,16.26,3.35,5.36,8.37,8.59,14.13,10.8a86.26,86.26,0,0,0,21.54,5c9.57,1,19.17,1.83,28.75,2.73.32,0,.63.11,1,.17v20.82H467.61Z"/></svg>